<svg width="241" height="160" viewBox="0 0 241 160" fill="none" xmlns="http://www.w3.org/2000/svg">
<g clip-path="url(#clip0_1858_22805)">
<mask id="mask0_1858_22805" style="mask-type:luminance" maskUnits="userSpaceOnUse" x="26" y="25" width="216" height="88">
<path d="M26.9961 112.899H241.229V25.2023H26.9961V112.899Z" fill="white"/>
</mask>
<g mask="url(#mask0_1858_22805)">
<path d="M48.1221 47.101C52.5998 47.101 54.0068 50.3127 55.1873 53.5193C55.6831 54.881 67.3191 86.746 67.669 87.7024C67.7621 87.9692 67.6992 88.4072 67.2889 88.5657C66.8761 88.7218 60.8303 91.0726 60.4956 91.1985C60.1608 91.3269 59.7858 91.1406 59.665 90.8058C59.5391 90.4761 57.0297 83.5293 56.7478 82.754H39.5014C39.2296 83.5293 36.69 90.4912 36.5767 90.8058C36.4609 91.1255 36.101 91.342 35.7436 91.1985C35.3862 91.0575 29.3177 88.7067 28.9553 88.5657C28.6079 88.4298 28.4494 88.0346 28.5702 87.7024C28.9981 86.5094 40.4579 55.1553 41.0418 53.5193C42.1795 50.3605 43.6343 47.101 48.1221 47.101ZM27.649 104.118C27.2865 104.118 26.9971 104.42 26.9971 104.788V112.235C26.9971 112.603 27.2865 112.9 27.649 112.9H68.5776C68.9476 112.9 69.237 112.603 69.237 112.235V104.788C69.237 104.42 68.9476 104.118 68.5776 104.118H27.649ZM48.0818 57.5062L42.2525 75.0118H54.0068L48.1573 57.5062H48.0818ZM135.554 86.2098C134.696 86.4993 134.13 86.5698 133.455 86.5698C132.061 86.5698 131.288 86.0185 131.288 84.5889C131.288 83.0988 132.27 82.6005 134.198 82.6005C134.668 82.6005 135.132 82.6684 135.348 82.744V83.8112C135.348 84.9614 135.411 85.7165 135.554 86.2098ZM140.51 87.9163C139.481 86.3533 139.212 85.4321 139.212 83.4613V79.4593C139.212 77.3048 138.96 76.527 138.391 75.7417C137.598 74.6292 136.277 74.1459 133.848 74.1459C132.129 74.1459 130.46 74.3322 128.844 74.745L129.428 77.5892C130.521 77.4356 131.666 77.3048 132.474 77.3048C135.054 77.3048 135.348 77.6773 135.348 79.6128V80.3352C134.774 80.1817 134.13 80.0709 133.382 80.0709C129.499 80.0709 127.447 81.9712 127.447 85.1175C127.447 88.0674 129.64 89.6757 132.31 89.6757C133.307 89.6757 134.349 89.492 135.174 89.1547C135.673 88.9382 135.889 88.8099 136.534 88.3921C136.921 88.9559 137.699 89.5322 138.016 89.6405L140.51 87.9163ZM178.927 86.2098C178.064 86.4993 177.508 86.5698 176.828 86.5698C175.428 86.5698 174.646 86.0185 174.646 84.5889C174.646 83.0988 175.64 82.6005 177.573 82.6005C178.044 82.6005 178.509 82.6684 178.721 82.744V83.8112C178.721 84.9614 178.781 85.7165 178.927 86.2098ZM183.888 87.9163C182.851 86.3533 182.587 85.4321 182.587 83.4613V79.4593C182.587 77.3048 182.33 76.527 181.756 75.7417C180.973 74.6292 179.649 74.1459 177.213 74.1459C175.496 74.1459 173.818 74.3322 172.202 74.745L172.778 77.5892C173.873 77.4356 175.021 77.3048 175.851 77.3048C178.416 77.3048 178.721 77.6773 178.721 79.6128V80.3352C178.147 80.1817 177.508 80.0709 176.745 80.0709C172.856 80.0709 170.797 81.9712 170.797 85.1175C170.797 88.0674 172.995 89.6757 175.678 89.6757C176.687 89.6757 177.719 89.492 178.537 89.1547C179.043 88.9382 179.252 88.8099 179.896 88.3921C180.289 88.9559 181.067 89.5322 181.386 89.6405L183.888 87.9163ZM214.127 89.341C214.127 89.341 211.998 84.8028 211.477 83.7709C210.89 82.608 210.347 81.8051 209.148 81.5157V81.4502C209.951 81.2967 210.591 80.8109 211.29 79.3259C211.952 77.8786 212.149 77.5665 212.539 77.2217C212.921 76.8794 213.445 77.0027 213.445 77.0027L213.641 74.3272C213.085 74.2517 212.468 74.2491 211.832 74.2844C210.774 74.3473 210.228 74.6519 209.707 75.1754C209.299 75.5756 209.023 76.1746 208.68 76.8618C208.318 77.6118 208.031 78.2159 207.653 78.9785C207.278 79.7613 207.102 80.1137 206.093 80.1137H205.436V68.2612H201.547V89.341H205.436V83.2801L205.967 83.27C207.082 83.27 207.278 83.5494 207.867 84.7248C208.557 86.1268 209.878 89.341 209.878 89.341H214.127ZM104.578 89.341H109.066L102.277 68.6136C101.563 68.3745 100.679 68.226 99.7353 68.226C98.7059 68.226 98.3384 68.3619 97.533 68.6136L90.3495 89.341H94.656C94.656 89.341 95.2375 87.5237 95.9221 85.271H103.362C104.027 87.5212 104.578 89.341 104.578 89.341ZM97.0145 81.7951C97.0145 81.7951 98.2578 77.6345 98.4516 76.9876C98.945 75.3113 99.695 72.6483 99.695 72.6483H99.8184C99.8184 72.6483 100.513 75.407 100.966 76.9574C101.137 77.5741 102.325 81.7951 102.325 81.7951H97.0145ZM147.135 79.4241C145.763 79.4241 144.648 80.5441 144.648 81.9159C144.648 83.2977 145.763 84.4102 147.135 84.4102C148.509 84.4102 149.619 83.2977 149.619 81.9159C149.619 80.5441 148.509 79.4241 147.135 79.4241ZM114.394 68.2612H110.495V89.3384H114.394V68.2612ZM191.854 77.496C194.009 77.5414 194.276 77.9869 194.276 79.7941V89.341H198.139V79.4593C198.139 77.3048 197.887 76.527 197.314 75.7417C196.521 74.6292 194.963 74.1459 192.327 74.1459C189.72 74.1459 188.059 74.4228 185.922 75.0596V89.341H189.826V77.6773C190.85 77.5288 191.031 77.496 191.854 77.496ZM124.037 67.8862C121.6 67.8862 120.274 68.3695 119.494 69.4795C118.92 70.2673 118.666 71.0626 118.666 73.2222V75.0596H116.73V78.2109H118.666V89.341H122.532L122.522 78.2109H126.375V75.0596H122.522L122.532 73.3707C122.532 71.4377 122.826 71.0626 125.409 71.0626C125.688 71.0626 126.003 71.0778 126.337 71.1029L126.946 68.075C125.992 67.9491 125.016 67.8862 124.037 67.8862ZM155.056 68.0825C156.382 68.0045 159.347 67.8938 161.208 67.8938C161.547 67.8938 161.9 67.8963 162.252 67.9139C165.909 67.9139 168.006 70.5769 168.006 73.703C168.006 75.8298 167.032 77.2418 164.749 78.0825C167.435 78.6765 168.842 80.7732 168.842 83.338C168.842 85.2207 168.31 86.7157 167.336 87.7351C166.073 88.9785 164.16 89.6757 161.613 89.6757C159.347 89.6757 156.503 89.6052 155.056 89.5197V68.0825ZM161.208 71.5358C160.563 71.5358 159.765 71.5484 158.975 71.5761V76.6378H161.21C162.096 76.6378 162.808 76.3911 163.294 75.9154C163.757 75.4674 163.999 74.8331 163.999 74.0805C163.999 72.4621 163.123 71.5459 161.494 71.5358H161.208ZM161.288 86.0412H161.457C163.488 86.0412 164.731 84.9614 164.746 82.7867C164.726 82.0065 164.427 81.2866 163.891 80.7656C163.304 80.1766 162.474 79.8696 161.499 79.8696H158.975V86.0185C159.687 86.0336 160.473 86.0362 161.288 86.0412Z" fill="black"/>
</g>
</g>
<defs>
<clipPath id="clip0_1858_22805">
<rect width="187.13" height="65.7981" fill="white" transform="translate(26.9971 47.1008)"/>
</clipPath>
</defs>
</svg>
