<svg width="151" height="34" viewBox="0 0 151 34" fill="none" xmlns="http://www.w3.org/2000/svg">
<g clip-path="url(#clip0_1887_16429)">
<path d="M15.6227 0C14.2142 0 12.9336 1.16307 12.9336 2.71384C12.9336 4.13539 14.0861 5.42769 15.6227 5.42769C17.0313 5.42769 18.3119 4.26461 18.3119 2.71384C18.1838 1.16307 17.0313 0 15.6227 0Z" fill="black"/>
<path d="M15.6227 28.3018C14.2142 28.3018 12.9336 29.4648 12.9336 31.0156C12.9336 32.4371 14.0861 33.7295 15.6227 33.7295C17.0313 33.7295 18.3119 32.5664 18.3119 31.0156C18.1838 29.4648 17.0313 28.3018 15.6227 28.3018Z" fill="black"/>
<path d="M25.483 3.35986C23.5622 3.35986 21.8975 4.91063 21.8975 6.97833C21.8975 8.91682 23.4341 10.5968 25.483 10.5968C27.4038 10.5968 29.0685 9.046 29.0685 6.97833C29.0685 4.91063 27.5319 3.35986 25.483 3.35986Z" fill="black"/>
<path d="M25.483 23.1323C23.5622 23.1323 21.8975 24.6831 21.8975 26.7508C21.8975 28.6893 23.4341 30.3693 25.483 30.3693C27.4038 30.3693 29.0685 28.8185 29.0685 26.7508C29.0685 24.6831 27.5319 23.1323 25.483 23.1323Z" fill="black"/>
<path d="M3.07329 16.6709C3.07329 17.5755 2.43303 18.2217 1.53665 18.2217C0.64027 18.2217 0 17.5755 0 16.6709C0 15.7663 0.64027 15.1201 1.53665 15.1201C2.43303 15.1201 3.07329 15.8955 3.07329 16.6709Z" fill="black"/>
<path d="M7.42755 6.84911C7.42755 7.88293 6.53118 8.78759 5.50675 8.78759C4.48232 8.78759 3.58594 7.88293 3.58594 6.84911C3.58594 5.81527 4.48232 4.91064 5.50675 4.91064C6.65924 5.03988 7.42755 5.81527 7.42755 6.84911Z" fill="black"/>
<path d="M7.42755 26.6215C7.42755 27.6554 6.53118 28.56 5.50675 28.56C4.48232 28.56 3.58594 27.6554 3.58594 26.6215C3.58594 25.5877 4.48232 24.6831 5.50675 24.6831C6.65924 24.6831 7.42755 25.5877 7.42755 26.6215Z" fill="black"/>
<path d="M29.5807 12.0186C27.0196 12.0186 24.9707 14.0863 24.9707 16.8001C24.9707 19.3847 27.0196 21.4524 29.5807 21.4524C32.1417 21.4524 34.1906 19.3847 34.1906 16.6709C34.1906 14.0863 32.1417 12.0186 29.5807 12.0186Z" fill="black"/>
<path d="M104.365 7.62451C100.779 7.62451 95.4004 9.43377 95.4004 16.5415C95.4004 23.6492 101.291 25.3292 104.365 25.3292C107.438 25.3292 113.328 23.5199 113.328 16.5415C113.328 9.56303 107.95 7.62451 104.365 7.62451ZM108.846 16.5415C108.846 21.1938 106.285 22.2276 104.365 22.2276C102.443 22.2276 99.8822 21.1938 99.8822 16.5415C99.8822 11.8892 102.572 10.8553 104.365 10.8553C106.029 10.8553 108.846 12.0184 108.846 16.5415Z" fill="black"/>
<path d="M88.229 15.8954L95.2719 7.88311H90.1496L83.7472 15.2493V2.71384C83.7472 1.55077 83.1067 0 80.2895 0C80.0335 0 79.6491 0 79.2646 0.129231V25.2H83.6188V16.4123L90.534 25.2H95.5279L88.229 15.8954Z" fill="black"/>
<path d="M125.237 7.75377C122.547 7.75377 121.011 8.65836 120.37 9.17533C120.242 9.17533 120.242 9.30451 120.114 9.30451C119.73 8.39992 118.833 7.62451 116.913 7.62451C116.657 7.62451 116.272 7.62451 115.889 7.75377V25.1999H120.37V12.1476C121.523 10.9845 124.852 10.3384 126.389 11.8892C127.285 12.7938 127.413 14.0861 127.413 15.2492V25.1999H131.895V14.3445C131.895 9.95066 128.566 7.75377 125.237 7.75377Z" fill="black"/>
<path d="M51.8615 7.62451C47.5076 7.62451 44.4344 9.69221 44.4344 9.69221L45.8429 12.1476C47.8918 10.9845 50.8371 10.4676 52.7579 10.8553C54.1665 11.1138 54.6787 12.1476 54.9348 12.923C55.0628 13.4399 55.0628 14.8615 55.0628 14.8615V14.3445C52.6298 13.8276 43.666 12.6645 43.666 19.7722C43.666 22.4861 45.3308 24.683 49.0443 25.0707C51.2212 25.3292 53.2701 24.9415 55.0628 23.6492C55.1909 23.6492 55.1909 23.5199 55.319 23.5199C55.7031 24.4245 56.5995 25.1999 58.5203 25.1999C58.7764 25.1999 59.1606 25.1999 59.5447 25.0707V13.3107C59.5447 8.78762 54.6787 7.62451 51.8615 7.62451ZM55.0628 17.0584V20.9353C53.2701 22.0984 51.7335 22.2276 50.8371 22.2276C49.8126 22.2276 48.0199 21.8399 47.8918 19.643C47.7637 15.8953 52.6298 16.4122 55.0628 17.0584Z" fill="black"/>
<path d="M68.1251 14.0861C66.3324 13.4399 66.3324 12.7938 66.4605 12.0184C66.9727 9.95066 71.8387 10.5969 74.5277 12.0184L75.8086 9.56303C74.2716 8.65836 71.7107 7.62451 68.8935 7.62451C66.4605 7.62451 64.1554 8.27066 63.003 10.0799C61.8505 11.8892 61.9785 14.603 64.0274 16.0245C65.5641 17.1876 68.5093 17.963 70.4301 18.4799C71.7106 18.7384 72.7351 19.2553 72.3509 20.6769C71.9668 22.2276 68.5093 23.3907 63.6432 19.643L61.9785 21.8399C61.9785 21.8399 64.6677 24.9415 69.0215 25.1999C73.5034 25.4584 76.8328 23.003 76.5767 19.5138C76.4483 15.6369 72.2229 15.5076 68.1251 14.0861Z" fill="black"/>
<path d="M142.525 7.62451C138.17 7.62451 135.097 9.69221 135.097 9.69221L136.506 12.1476C138.555 10.9845 141.5 10.4676 143.42 10.8553C144.829 11.1138 145.342 12.1476 145.598 12.923C145.725 13.4399 145.725 14.8615 145.725 14.8615V14.3445C143.293 13.8276 134.329 12.6645 134.329 19.7722C134.329 22.4861 135.994 24.683 139.707 25.0707C141.884 25.3292 143.933 24.9415 145.725 23.6492C145.854 23.6492 145.854 23.5199 145.981 23.5199C146.366 24.4245 147.262 25.1999 149.183 25.1999C149.439 25.1999 149.824 25.1999 150.207 25.0707V13.3107C150.207 8.78762 145.469 7.62451 142.525 7.62451ZM145.725 17.0584V20.9353C143.933 22.0984 142.396 22.2276 141.5 22.2276C140.476 22.2276 138.683 21.8399 138.555 19.643C138.426 15.8953 143.293 16.4122 145.725 17.0584Z" fill="black"/>
</g>
<defs>
<clipPath id="clip0_1887_16429">
<rect width="151" height="34" fill="white"/>
</clipPath>
</defs>
</svg>
