<svg xmlns="http://www.w3.org/2000/svg" width="118" height="118" viewBox="0 0 118 118" fill="none">
<path d="M74.9055 117.987C65.9765 117.987 57.6882 115.253 50.8312 110.572C38.6887 118.896 21.9658 117.667 11.1783 106.879C0.390723 96.0921 -0.839078 79.3696 7.48578 67.2275C2.80457 60.3676 0.0703125 52.0796 0.0703125 43.1538C0.0703125 19.5347 19.2163 0.392334 42.8359 0.389282C51.765 0.389282 60.0532 3.12653 66.9103 7.80457C79.0527 -0.517024 95.7757 0.712749 106.56 11.5C117.348 22.2872 118.577 39.0128 110.253 51.1519C114.934 58.0087 117.671 66.2968 117.671 75.2256C117.671 98.8447 98.5252 117.987 74.9055 117.99V117.987Z" fill="white"/>
</svg>