<svg xmlns="http://www.w3.org/2000/svg" width="244" height="227" viewBox="0 0 244 227" fill="none">
<path d="M62.8362 -6.10352e-05C28.5195 -6.10352e-05 0.702179 27.8173 0.702179 62.134C0.702179 85.8494 13.984 106.463 33.5168 116.931C27.9533 127.474 25.0127 139.283 25.0127 151.542C25.0127 171.439 32.76 190.14 46.8217 204.207C60.8893 218.275 79.5901 226.016 99.4811 226.016C109.429 226.016 119.083 224.087 128.003 220.384C136.923 216.692 145.115 211.244 152.146 204.207C157.299 199.048 161.609 193.271 164.989 187.037C184.701 184.53 202.911 175.633 217.192 161.363C234.217 144.332 243.6 121.686 243.6 97.6003C243.6 73.5151 234.217 50.8741 217.192 33.8429C200.155 16.8059 177.514 7.42947 153.429 7.42947C137.258 7.42947 121.735 11.6584 108.124 19.5905C96.7947 7.53345 80.6936 -6.10352e-05 62.8362 -6.10352e-05Z" fill="white"/>
</svg>