<svg xmlns="http://www.w3.org/2000/svg" width="182" height="245" viewBox="0 0 182 245" fill="none">
<path d="M193.349 174.478C195.725 183.501 195.853 193.255 193.264 202.917C185.335 232.51 154.916 250.068 125.323 242.138C109.613 237.929 97.2946 227.385 90.3816 213.981C77.6924 222.133 61.7525 225.105 46.0373 220.894C16.4441 212.964 -1.11348 182.545 6.81449 152.958C9.40328 143.296 14.3912 134.912 20.961 128.287C4.62176 114.9 -3.30497 92.7244 2.51755 70.9944C10.447 41.4013 40.8673 23.8381 70.4605 31.7676C74.1911 32.7672 77.7178 34.1252 81.0431 35.7883C91.1527 9.7422 119.481 -5.04143 147.086 2.35532C174.691 9.75206 191.828 36.718 187.56 64.3293C191.272 64.5461 195.01 65.1405 198.74 66.1401C228.334 74.0695 245.891 104.488 237.962 134.082C232.139 155.811 214.192 171.054 193.349 174.478Z" fill="white"/>
</svg>