<svg width="241" height="36" viewBox="0 0 241 36" fill="none" xmlns="http://www.w3.org/2000/svg">
<g id="logo">
<g id="Group 1">
<g id="Group">
<path id="Vector" d="M31.526 15.4039H27.8799V31.3454H31.526V15.4039Z" fill="black"/>
<path id="Vector_2" d="M47.085 7.76786L44.5068 10.2413L56.2566 21.5136L58.8348 19.0402L47.085 7.76786Z" fill="black"/>
<path id="Vector_3" d="M40.099 13.07L36.7305 14.4086L43.0894 29.1366L46.458 27.798L40.099 13.07Z" fill="black"/>
<path id="Vector_4" d="M12.3123 7.77204L0.5625 19.0444L3.1407 21.5178L14.8905 10.2455L12.3123 7.77204Z" fill="black"/>
<path id="Vector_5" d="M19.3023 13.0757L12.9434 27.8037L16.3119 29.1423L22.6709 14.4143L19.3023 13.0757Z" fill="black"/>
</g>
<g id="Group_2">
<path id="Vector_6" d="M97.4664 0.447357H93.8203V28.2284H97.4664V0.447357Z" fill="black"/>
<path id="Vector_7" d="M159.3 7.32169C156.283 7.32169 154.158 8.71601 152.726 10.3333H152.641L152.219 7.7716H148.995V35.5526H152.641V25.7478H152.726C154.019 27.1948 156.317 28.6783 159.3 28.6783C165.151 28.6783 169.135 23.4618 169.135 17.9818C169.135 12.5017 165.147 7.32574 159.3 7.32574V7.32169ZM164.619 21.8242C164.04 22.951 163.263 23.8225 162.287 24.4467C161.311 25.0709 160.246 25.383 159.084 25.383C157.922 25.383 156.849 25.0709 155.861 24.4467C154.872 23.8225 154.086 22.947 153.507 21.8242C152.929 20.7015 152.637 19.4166 152.637 17.9818C152.637 16.5469 152.929 15.2701 153.507 14.1595C154.086 13.0489 154.872 12.1815 155.861 11.5573C156.849 10.9331 157.922 10.621 159.084 10.621C160.246 10.621 161.311 10.9331 162.287 11.5573C163.263 12.1815 164.04 13.0489 164.619 14.1595C165.198 15.2701 165.489 16.5469 165.489 17.9818C165.489 19.4166 165.198 20.7015 164.619 21.8242Z" fill="black"/>
<path id="Vector_8" d="M177.785 2.40103H174.52V5.32748C174.52 6.87988 173.637 7.76755 171.87 7.76755H170.493V10.9818H174.139V21.7391C174.139 26.1855 176.636 28.6742 180.413 28.6742C181.119 28.6742 181.905 28.5405 182.619 28.3095V25.2614C182.192 25.4357 181.753 25.5411 181.136 25.5411C179.251 25.5411 177.785 24.698 177.785 22.2377V10.9777H182.619V7.76349H177.785V2.40103Z" fill="black"/>
<path id="Vector_9" d="M213.062 10.3333H212.977L212.555 7.77161H209.331V28.2325H212.977V16.7212C212.977 14.9053 213.493 13.4664 214.524 12.4085C215.554 11.3506 216.906 10.925 218.571 10.925C219.234 10.925 219.606 10.9575 220.223 11.0507V7.65001C219.598 7.46761 219.002 7.40681 218.571 7.40681C215.77 7.40681 214.164 8.74439 213.057 10.3333H213.062Z" fill="black"/>
<path id="Vector_10" d="M236.79 7.76755C236.79 7.76755 233.287 18.2736 230.791 25.76L225.184 7.76755H221.242L227.96 28.2284H229.967C229.827 28.6499 229.692 29.0512 229.565 29.4322C228.906 31.4102 227.833 32.0749 226.257 32.0749C225.805 32.0749 225.345 32.0344 224.859 31.9412V35.1635C225.509 35.3135 226.287 35.3743 226.853 35.3743C229.257 35.3743 231.505 33.8665 233.042 29.4363C233.938 26.8624 240.563 7.7716 240.563 7.7716H236.79V7.76755Z" fill="black"/>
<path id="Vector_11" d="M111.868 7.32169C106.245 7.32169 101.69 12.1005 101.69 17.998C101.69 23.8955 105.907 28.6742 111.868 28.6742C115.878 28.6742 119.418 26.3234 121.007 22.7079H117.238C116.072 24.5683 114.154 25.5005 111.885 25.5005C108.349 25.5005 105.586 23.1699 105.315 19.5301H121.59C121.658 19.0315 121.696 18.5168 121.696 17.998C121.696 11.914 117.88 7.32169 111.868 7.32169ZM105.311 16.632C105.7 12.98 108.302 10.5359 111.898 10.5359C115.493 10.5359 117.88 13.0854 118.172 16.632H105.315H105.311Z" fill="black"/>
<path id="Vector_12" d="M135.133 7.32169C129.51 7.32169 124.955 12.1005 124.955 17.998C124.955 23.8955 129.172 28.6742 135.133 28.6742C139.142 28.6742 142.683 26.3234 144.272 22.7079H140.503C139.337 24.5683 137.419 25.5005 135.15 25.5005C131.614 25.5005 128.85 23.1699 128.58 19.5301H144.855C144.922 19.0315 144.96 18.5168 144.96 17.998C144.96 11.914 141.145 7.32169 135.133 7.32169ZM128.576 16.632C128.965 12.98 131.567 10.5359 135.163 10.5359C138.758 10.5359 141.145 13.0854 141.437 16.632H128.58H128.576Z" fill="black"/>
<path id="Vector_13" d="M195.044 7.32169C189.421 7.32169 184.866 12.1005 184.866 17.998C184.866 23.8955 189.083 28.6742 195.044 28.6742C199.054 28.6742 202.594 26.3234 204.183 22.7079H200.414C199.248 24.5683 197.33 25.5005 195.061 25.5005C191.525 25.5005 188.762 23.1699 188.491 19.5301H204.766C204.833 19.0315 204.871 18.5168 204.871 17.998C204.871 11.914 201.056 7.32169 195.044 7.32169ZM188.487 16.632C188.876 12.98 191.478 10.5359 195.074 10.5359C198.669 10.5359 201.056 13.0854 201.348 16.632H188.491H188.487Z" fill="black"/>
<path id="Vector_14" d="M82.0976 16.4456C78.7134 15.4647 77.1924 14.6419 77.1924 13.057C77.1924 11.4722 78.6205 10.4143 80.9526 10.4143C83.9397 10.4143 85.2029 11.8938 85.448 13.6691H89.0518C88.8617 11.0385 86.2465 7.32573 80.9526 7.32573C77.0572 7.32573 73.5463 9.37668 73.5463 13.1827C73.5463 16.9887 77.1629 18.2655 80.6696 19.3234C83.9481 20.3164 85.7015 20.8839 85.7015 22.7403C85.7015 24.2886 84.4171 25.5857 81.447 25.5857C78.4768 25.5857 76.8756 24.2765 76.6432 22.1282H72.9971C73.2506 25.6343 76.3939 28.6783 81.447 28.6783C86.5 28.6783 89.3476 26.0194 89.3476 22.6187C89.3476 18.991 86.0395 17.5926 82.0976 16.4496V16.4456Z" fill="black"/>
</g>
</g>
</g>
</svg>
