<svg width="200" height="120" viewBox="0 0 200 120" fill="none" xmlns="http://www.w3.org/2000/svg">
<path d="M90.7119 40.8392L100.142 98.9551L109.502 40.8392H90.7119Z" fill="white" stroke="black" stroke-width="3"/>
<path d="M128.152 40.8392L100.142 98.9551L146.942 40.8392L128.152 40.8392Z" fill="white" stroke="black" stroke-width="3"/>
<path d="M53.2715 40.8392L100.141 98.9551L72.0612 40.8392H53.2715Z" fill="white" stroke="black" stroke-width="3"/>
<path d="M148.651 38.7307C148.651 41.5739 126.898 45.1956 100.065 45.1956C73.232 45.1956 51.4795 41.5739 51.4795 38.7307C51.4795 38.0528 55.847 25.9749 58.0941 25.3822C65.2719 23.4888 78.8003 24.478 99.2358 24.478C118.542 24.478 134.5 23.6538 142.337 25.3822C145.392 26.056 148.651 37.9331 148.651 38.7307Z" fill="white" stroke="black" stroke-width="3" stroke-miterlimit="10"/>
<ellipse cx="100.064" cy="26.2215" rx="42.3799" ry="4.4906" fill="white" stroke="black" stroke-width="3" stroke-miterlimit="10"/>
<path d="M56.7773 26.9859L57.3455 40.6028L65.4216 29.1686L73.6934 43.7106L82.8535 30.7706L91.4321 45.0273L99.7586 30.7706L108.93 45.0273L118.222 30.7706L126.428 43.7106L135.127 29.4539L143.522 40.6028L142.879 26.9859" stroke="black" stroke-width="3" stroke-linejoin="bevel"/>
<rect x="17.3232" y="80" width="22" height="22" rx="11" stroke="black" stroke-width="2"/>
<path d="M31.0992 87.796L29.2652 90.176C29.9466 90.372 30.4879 90.7173 30.8892 91.212C31.2999 91.7067 31.5052 92.2947 31.5052 92.976C31.5052 93.984 31.1646 94.7727 30.4832 95.342C29.8206 95.9113 28.9946 96.196 28.0052 96.196C27.2306 96.196 26.5446 96.0187 25.9472 95.664C25.3499 95.3 24.9159 94.7867 24.6452 94.124L26.2972 93.172C26.5306 93.928 27.0999 94.306 28.0052 94.306C28.4999 94.306 28.8826 94.1893 29.1532 93.956C29.4332 93.7133 29.5732 93.3867 29.5732 92.976C29.5732 92.5747 29.4332 92.2527 29.1532 92.01C28.8826 91.7673 28.4999 91.646 28.0052 91.646H27.5852L26.8432 90.526L28.7752 88.006H24.9392V86.2H31.0992V87.796Z" fill="black"/>
</svg>
