<svg width="201" height="120" viewBox="0 0 201 120" fill="none" xmlns="http://www.w3.org/2000/svg">
<path d="M72.2586 41.9995C66.9393 40.7514 61.3083 46.3851 62.5574 51.7041C65.5422 64.4141 65.5478 77.6819 62.5726 90.391C61.3282 95.7067 66.9512 101.331 72.2668 100.087C84.9769 97.1108 98.2425 97.113 110.953 100.098C116.272 101.348 121.907 95.7173 120.66 90.3979C117.679 77.6868 117.674 64.4224 120.648 51.712C121.892 46.3948 116.264 40.7687 110.947 42.0136C98.2405 44.9888 84.9732 44.9828 72.2586 41.9995Z" fill="white" stroke="#888888" stroke-width="3" stroke-miterlimit="10"/>
<path d="M85.0428 29.2148C79.7235 27.9667 74.0925 33.6004 75.3416 38.9194C78.3264 51.6294 78.332 64.8972 75.3568 77.6063C74.1124 82.922 79.7354 88.5463 85.051 87.3018C97.7611 84.3262 111.027 84.3284 123.738 87.3137C129.057 88.563 134.691 82.9326 133.444 77.6132C130.463 64.9021 130.458 51.6377 133.432 38.9273C134.677 33.6101 129.048 27.984 123.731 29.229C111.025 32.2041 97.7574 32.1982 85.0428 29.2148Z" fill="white" stroke="#333333" stroke-width="3" stroke-miterlimit="10"/>
<path d="M97.8269 16.4306C92.5077 15.1825 86.8766 20.8162 88.1258 26.1352C91.1106 38.8453 91.1162 52.1131 88.141 64.8221C86.8966 70.1378 92.5196 75.7622 97.8352 74.5177C110.545 71.542 123.811 71.5442 136.522 74.5296C141.841 75.7788 147.475 70.1484 146.228 64.829C143.247 52.1179 143.242 38.8536 146.217 26.1431C147.461 20.8259 141.832 15.1998 136.515 16.4448C123.809 19.42 110.542 19.414 97.8269 16.4306Z" fill="white" stroke="black" stroke-width="3" stroke-miterlimit="10"/>
<path d="M112.423 34.1802C108.749 30.7532 102.793 30.7532 99.1198 34.1802" stroke="black" stroke-width="3" stroke-linejoin="round"/>
<path d="M135.423 34.1802C131.749 30.7532 125.793 30.7532 122.12 34.1802" stroke="black" stroke-width="3" stroke-linejoin="round"/>
<path d="M130.727 42.6099C123.38 49.4637 111.468 49.4637 104.121 42.6099" stroke="black" stroke-width="3" stroke-linejoin="round"/>
<rect x="17.3232" y="80" width="22" height="22" rx="11" stroke="black" stroke-width="2"/>
<path d="M31.2532 96H24.7012V94.558L28.0472 91.114C28.7939 90.3207 29.1672 89.6673 29.1672 89.154C29.1672 88.7713 29.0459 88.4633 28.8032 88.23C28.5699 87.9967 28.2666 87.88 27.8932 87.88C27.1466 87.88 26.6006 88.2627 26.2552 89.028L24.6312 88.076C24.9299 87.4133 25.3639 86.9047 25.9332 86.55C26.5119 86.186 27.1559 86.004 27.8652 86.004C28.7519 86.004 29.5126 86.284 30.1472 86.844C30.7819 87.3947 31.0992 88.1413 31.0992 89.084C31.0992 90.1013 30.5626 91.1467 29.4892 92.22L27.5712 94.138H31.2532V96Z" fill="black"/>
</svg>
