<svg width="181" height="48" viewBox="0 0 181 48" fill="none" xmlns="http://www.w3.org/2000/svg">
<path d="M38.0059 9.88232H7.51172V40.3595H38.0059V9.88232Z" fill="black"/>
<path d="M33.0833 12.9238C32.3824 12.9238 31.8492 13.3836 31.584 13.9409L27.7446 20.2615C27.4793 20.8456 27.286 21.5016 27.286 21.9372C27.286 22.3266 27.3364 22.6674 27.48 22.9838L31.631 32.8969H15.5032C14.924 32.8969 14.4449 32.3176 14.4449 31.7797V14.6935C14.3232 12.3596 10.9666 12.3596 10.8936 14.7641L10.9641 32.8969C10.9641 34.8682 12.4882 36.4482 14.4449 36.4482H36.4347L31.0783 22.7428C30.9323 22.2317 30.8592 21.7696 31.2194 21.1611L34.7707 15.3991C34.8218 15.2774 34.8883 14.7666 34.8883 14.623C34.8177 13.5765 34.0008 12.8751 33.0833 12.9238ZM24.3755 12.9296C23.5128 12.9357 22.6528 13.5266 22.6528 14.6935V26.9232C22.6528 28.6973 20.2598 28.5537 20.2598 26.9232V14.6935C20.2598 12.3596 16.8085 12.3596 16.8085 14.6935V27.0172C16.8085 29.8355 18.9065 31.7092 21.4181 31.7092C24.0002 31.7092 26.1042 29.8355 26.1042 27.0172V14.6935C26.1042 13.5022 25.2383 12.9236 24.3755 12.9296Z" fill="white"/>
<path d="M49.5004 13.4209V26.1077C49.5004 29.2789 49.1767 31.0408 46.597 31.0408C46.1127 31.0408 45.789 31.0408 45.3047 30.8656V36.3268C46.2733 36.6797 46.9182 36.6797 47.7262 36.6797C54.9859 36.6797 55.3096 31.2185 55.3096 28.045V18.8845H59.5029V36.3268H65.3121V13.4209H49.5004Z" fill="black"/>
<path d="M67.2471 13.4209L75.1541 29.9846L72.2507 36.3268H78.5419L87.8994 13.4209H81.6083L78.2206 23.1119L74.1855 13.4209H67.2471Z" fill="black"/>
<path d="M89.6729 36.3268H95.4821V26.4606L101.452 36.3268H108.875L100.646 24.521L108.712 13.4209H101.776L95.4821 23.1119V13.4209H89.6729V36.3268Z" fill="black"/>
<path d="M118.393 37.0326C126.137 37.0326 129.688 31.0409 129.688 24.8739C129.688 18.8846 126.137 12.8928 118.393 12.8928C110.81 12.8928 107.262 18.8846 107.262 24.8739C107.262 31.0409 110.81 37.0326 118.393 37.0326ZM118.393 31.569C115.811 31.569 113.232 29.2789 113.232 24.8739C113.232 20.4689 115.811 18.354 118.393 18.354C121.136 18.354 123.718 20.4689 123.718 24.8739C123.718 29.2789 121.136 31.569 118.393 31.569Z" fill="black"/>
<path d="M132.592 13.4209V36.3268H138.24L146.306 22.5837V36.3268H151.954V13.4209H146.306L138.24 27.164V13.4209H132.592ZM142.434 12.187C144.855 12.187 147.274 11.306 148.403 8.66301L145.016 7.25391C144.531 9.0159 143.079 9.19356 142.434 9.19356C141.949 9.19356 140.336 9.0159 140.015 7.25391L136.627 8.66301C137.593 11.306 140.175 12.187 142.434 12.187Z" fill="black"/>
<path d="M158.084 13.4209V26.1077C158.084 29.2789 157.761 31.0408 155.181 31.0408C154.697 31.0408 154.373 31.0408 153.889 30.8656V36.3268C154.857 36.6797 155.502 36.6797 156.31 36.6797C163.57 36.6797 163.894 31.2185 163.894 28.045V18.8845H168.087V36.3268H173.896V13.4209H158.084Z" fill="black"/>
</svg>
