<svg width="97" height="97" viewBox="0 0 97 97" fill="none" xmlns="http://www.w3.org/2000/svg">
<rect x="0.5625" y="0.0917969" width="96" height="96" rx="24" fill="url(#paint0_linear_1858_23911)"/>
<path d="M13.7402 54.7831C13.7402 65.1789 22.1677 73.6081 32.5639 73.6081C42.3339 73.6081 63.6363 73.6081 72.167 73.6081C80.6995 73.6081 87.6141 66.6919 87.6141 58.1615C87.6141 49.6292 80.6995 42.7149 72.167 42.7149C71.1695 42.7149 70.1927 42.8086 69.2478 42.9924C69.4634 41.9087 69.5778 40.7895 69.5778 39.6439C69.5778 30.2343 61.9489 22.6038 52.537 22.6038C44.2913 22.6038 37.4123 28.4626 35.8375 36.2412C34.7744 36.0556 33.6795 35.9581 32.562 35.9581C22.1659 35.9581 13.7383 44.3854 13.7383 54.7812L13.7402 54.7831Z" fill="white"/>
<path d="M11.9569 56.6261C11.9569 67.0219 20.3845 75.4511 30.7807 75.4511C40.5507 75.4511 61.8531 75.4511 70.3838 75.4511C78.9163 75.4511 85.8309 68.5349 85.8309 60.0045C85.8309 51.4722 78.9163 44.5579 70.3838 44.5579C69.3863 44.5579 68.4095 44.6517 67.4646 44.8354C67.6802 43.7517 67.7945 42.6325 67.7945 41.487C67.7945 32.0773 60.1657 24.4468 50.7538 24.4468C42.5081 24.4468 35.6291 30.3056 34.0543 38.0842C32.9912 37.8986 31.8963 37.8011 30.7788 37.8011C20.3826 37.8011 11.9551 46.2284 11.9551 56.6242L11.9569 56.6261Z" stroke="black" stroke-width="2" stroke-linejoin="round"/>
<path d="M37.4531 57.9563C44.0865 64.5897 54.8416 64.5897 61.4749 57.9563" stroke="black" stroke-width="2" stroke-linejoin="round"/>
<path d="M57.9541 44.7893C54.3722 46.7613 52.1743 49.6441 53.0458 51.2271C53.9173 52.8101 57.5287 52.4946 61.1105 50.5226" stroke="black" stroke-width="2" stroke-linejoin="round"/>
<path d="M36.7854 51.1585C40.4223 53.027 44.156 53.0154 45.1233 51.1327C46.0906 49.2499 43.9257 46.2079 40.2888 44.3394" stroke="black" stroke-width="2" stroke-linejoin="round"/>
<path d="M51.9217 26.0596L57.9777 15.5704L57.7957 19.9761L57.7103 22.045L59.3838 20.8256L64.235 17.2907L63.6801 23.3212L63.4939 25.3452L65.211 24.2576L68.9388 21.8964L62.8818 32.3874C62.6584 32.3544 62.3591 32.297 61.9823 32.1974C60.9295 31.9192 59.2689 31.3105 56.9648 29.9803C54.6608 28.65 53.3033 27.5162 52.536 26.7436C52.2613 26.4671 52.062 26.2366 51.9217 26.0596Z" fill="white" stroke="black" stroke-width="2"/>
<defs>
<linearGradient id="paint0_linear_1858_23911" x1="96.5625" y1="0.0917969" x2="0.562511" y2="96.0918" gradientUnits="userSpaceOnUse">
<stop stop-color="#FFD058"/>
<stop offset="1" stop-color="#FF8731"/>
</linearGradient>
</defs>
</svg>
