<svg width="97" height="97" viewBox="0 0 97 97" fill="none" xmlns="http://www.w3.org/2000/svg">
<rect x="0.5625" y="0.0917969" width="96" height="96" rx="24" fill="url(#paint0_linear_1858_23930)"/>
<path d="M71.6841 45.468C71.1806 45.468 70.6867 45.5046 70.2007 45.5697C70.5898 45.2726 70.9662 44.9485 71.322 44.5926C75.6338 40.279 75.6338 33.2867 71.322 28.9731C67.0101 24.6594 60.0206 24.6594 55.7088 28.9731C55.353 29.329 55.0291 29.7055 54.7321 30.0948C54.7972 29.6086 54.8337 29.1145 54.8337 28.6108C54.8337 22.5114 49.8914 17.5654 43.7928 17.5654C37.6943 17.5654 32.752 22.5098 32.752 28.6108C32.752 30.8272 33.4079 32.8911 34.5307 34.6213C31.7911 35.7795 29.2247 37.4748 26.9917 39.707C17.7137 48.9888 17.7137 64.038 26.9917 73.3198C36.2697 82.6016 51.3128 82.6016 60.5908 73.3198C62.8237 71.086 64.5167 68.5185 65.6745 65.7778C67.404 66.9026 69.4654 67.5572 71.6825 67.5572C77.7794 67.5572 82.7233 62.6129 82.7233 56.5118C82.7233 50.4108 77.781 45.4665 71.6825 45.4665L71.6841 45.468Z" fill="white"/>
<path d="M29.6603 47.7542H14.5664" stroke="black" stroke-width="2" stroke-linejoin="round"/>
<path d="M61.4806 47.7542H46.3867" stroke="black" stroke-width="2" stroke-linejoin="round"/>
<path d="M51.4869 52.7241C51.4869 60.1613 45.4598 66.1908 38.0257 66.1908C30.5915 66.1908 24.5645 60.1613 24.5645 52.7241" stroke="black" stroke-width="2" stroke-linejoin="round"/>
<path d="M69.5161 46.8821C69.0126 46.8821 68.5187 46.9187 68.0328 46.9838C68.4219 46.6867 68.7982 46.3626 69.154 46.0067C73.4658 41.6931 73.4658 34.7007 69.154 30.3871C64.8421 26.0735 57.8527 26.0735 53.5408 30.3871C53.1851 30.743 52.8611 31.1196 52.5641 31.5088C52.6292 31.0226 52.6657 30.5285 52.6657 30.0249C52.6657 23.9254 47.7234 18.9795 41.6249 18.9795C35.5263 18.9795 30.584 23.9239 30.584 30.0249C30.584 32.2413 31.2399 34.3051 32.3627 36.0353C29.6232 37.1936 27.0567 38.8888 24.8237 41.1211C15.5457 50.4029 15.5457 65.4521 24.8237 74.7339C34.1018 84.0157 49.1448 84.0157 58.4228 74.7339C60.6558 72.5 62.3487 69.9325 63.5065 67.1918C65.236 68.3167 67.2974 68.9713 69.5145 68.9713C75.6114 68.9713 80.5554 64.0269 80.5554 57.9259C80.5554 51.8249 75.613 46.8805 69.5145 46.8805L69.5161 46.8821Z" stroke="black" stroke-width="2" stroke-linejoin="round"/>
<path d="M81.079 20.344H84.3089L75.6795 29.4499L76.9944 24.7045L77.3455 23.4374H76.0307H73.6314L76.2784 13.9683H83.3133L80.2353 18.8073L79.2578 20.344H81.079Z" fill="white" stroke="black" stroke-width="2"/>
<defs>
<linearGradient id="paint0_linear_1858_23930" x1="96.5625" y1="0.0917969" x2="0.562511" y2="96.0918" gradientUnits="userSpaceOnUse">
<stop stop-color="#A1AAFF"/>
<stop offset="1" stop-color="#495BFF"/>
</linearGradient>
</defs>
</svg>
