<svg width="97" height="97" viewBox="0 0 97 97" fill="none" xmlns="http://www.w3.org/2000/svg">
<rect x="0.5625" y="0.0917969" width="96" height="96" rx="24" fill="url(#paint0_linear_1858_23921)"/>
<path d="M59.0668 78.4965C54.3498 78.4965 49.9713 77.0521 46.3489 74.5792C39.9343 78.9769 31.1 78.3273 25.4012 72.6286C19.7025 66.93 19.0528 58.0959 23.4506 51.6815C20.9776 48.0576 19.5332 43.6792 19.5332 38.964C19.5332 26.4866 29.6475 16.3742 42.1252 16.3726C46.8422 16.3726 51.2207 17.8186 54.8431 20.2899C61.2576 15.8938 70.0919 16.5434 75.7891 22.2421C81.4879 27.9407 82.1376 36.7764 77.7398 43.1892C80.2127 46.8115 81.6588 51.1898 81.6588 55.9067C81.6588 68.3841 71.5444 78.4965 59.0668 78.4981V78.4965Z" fill="white"/>
<path d="M61.5608 47.6992C61.5608 43.6138 60.0966 40.3008 58.2911 40.3008C56.4856 40.3008 55.0215 43.6138 55.0215 47.6992" stroke="black" stroke-width="2" stroke-linejoin="round"/>
<path d="M44.6678 47.6992C44.6678 43.6138 42.9528 40.3008 40.8378 40.3008C38.7229 40.3008 37.0078 43.6138 37.0078 47.6992" stroke="black" stroke-width="2" stroke-linejoin="round"/>
<path d="M36.4746 52.28C38.2001 62.0846 49.7119 62.2603 62.1793 52.6592" stroke="black" stroke-width="2" stroke-linejoin="round"/>
<path d="M57.0336 79.9995C52.3166 79.9995 47.9381 78.5551 44.3157 76.0822C37.9011 80.4799 29.0668 79.8302 23.368 74.1316C17.6693 68.4329 17.0196 59.5988 21.4174 53.1844C18.9444 49.5605 17.5 45.1822 17.5 40.4669C17.5 27.9896 27.6143 17.8771 40.092 17.8755C44.809 17.8755 49.1875 19.3215 52.8099 21.7928C59.2244 17.3967 68.0587 18.0464 73.7559 23.745C79.4547 29.4436 80.1044 38.2793 75.7066 44.6921C78.1795 48.3144 79.6256 52.6928 79.6256 57.4097C79.6256 69.887 69.5112 79.9995 57.0336 80.0011V79.9995Z" stroke="black" stroke-width="2" stroke-miterlimit="10"/>
<path d="M84.6322 21.8835C80.5102 23.4947 77.2233 26.7778 75.6139 30.8998C74.0008 26.7778 70.7177 23.4947 66.5957 21.8835C70.7177 20.2704 74.0008 16.9872 75.6139 12.8652C77.2233 16.9872 80.5102 20.2704 84.6322 21.8835Z" fill="white" stroke="black" stroke-width="2" stroke-miterlimit="10"/>
<defs>
<linearGradient id="paint0_linear_1858_23921" x1="96.5625" y1="0.0917969" x2="0.562511" y2="96.0918" gradientUnits="userSpaceOnUse">
<stop stop-color="#FFA1C2"/>
<stop offset="1" stop-color="#FF6198"/>
</linearGradient>
</defs>
</svg>
