<svg width="97" height="97" viewBox="0 0 97 97" fill="none" xmlns="http://www.w3.org/2000/svg">
<rect x="0.5625" y="0.0917969" width="96" height="96" rx="24" fill="url(#paint0_linear_1858_23881)"/>
<path d="M42.4926 70.7901C40.4323 71.9681 38.044 72.6416 35.4998 72.6416C27.707 72.6416 21.3906 66.3238 21.3906 58.531C21.3906 54.3942 23.1701 50.6735 26.0084 48.0925C23.1701 45.5116 21.3906 41.7909 21.3906 37.6526C21.3906 29.8597 27.7084 23.5434 35.4998 23.5434C38.044 23.5434 40.4323 24.217 42.4926 25.3949C44.7059 20.4992 49.6325 17.0918 55.3547 17.0918C63.1475 17.0918 69.4653 23.4096 69.4653 31.2024C69.4653 32.1848 69.3638 33.1407 69.1741 34.0672C76.239 34.8363 81.7362 40.8232 81.7362 48.0925C81.7362 55.3618 76.239 61.3473 69.1741 62.1164C69.3653 63.0429 69.4653 64.0003 69.4653 64.9826C69.4653 72.7755 63.1475 79.0918 55.3547 79.0918C49.6325 79.0918 44.7059 75.6858 42.4926 70.7901Z" fill="white"/>
<path d="M33.3203 48.4495C36.2843 45.4855 41.0918 45.4855 44.0558 48.4495" stroke="black" stroke-width="1.5" stroke-linejoin="round"/>
<path d="M53.7578 48.4495C56.7218 45.4855 61.5293 45.4855 64.4933 48.4495" stroke="black" stroke-width="1.5" stroke-linejoin="round"/>
<path d="M40.4926 72.7901C38.4323 73.9681 36.044 74.6416 33.4998 74.6416C25.707 74.6416 19.3906 68.3238 19.3906 60.531C19.3906 56.3942 21.1701 52.6735 24.0084 50.0925C21.1701 47.5116 19.3906 43.7909 19.3906 39.6526C19.3906 31.8597 25.7084 25.5434 33.4998 25.5434C36.044 25.5434 38.4323 26.217 40.4926 27.3949C42.7059 22.4992 47.6325 19.0918 53.3547 19.0918C61.1475 19.0918 67.4653 25.4096 67.4653 33.2024C67.4653 34.1848 67.3638 35.1407 67.1741 36.0672C74.239 36.8363 79.7362 42.8232 79.7362 50.0925C79.7362 57.3618 74.239 63.3473 67.1741 64.1164C67.3653 65.0429 67.4653 66.0003 67.4653 66.9826C67.4653 74.7755 61.1475 81.0918 53.3547 81.0918C47.6325 81.0918 42.7059 77.6858 40.4926 72.7901Z" stroke="black" stroke-width="2" stroke-miterlimit="10"/>
<path d="M60.4922 53.3352C60.4922 58.1247 55.0459 62.0076 48.3281 62.0076C41.6103 62.0076 36.1641 58.1247 36.1641 53.3352" stroke="black" stroke-width="1.5" stroke-linejoin="round"/>
<circle cx="79.3125" cy="21.3418" r="7.25" fill="white" stroke="black" stroke-width="2"/>
<path d="M79.4936 16.9338V21.9338H76.0312" stroke="black" stroke-width="2"/>
<defs>
<linearGradient id="paint0_linear_1858_23881" x1="96.5625" y1="0.0917969" x2="0.562511" y2="96.0918" gradientUnits="userSpaceOnUse">
<stop stop-color="#7DBBFF"/>
<stop offset="1" stop-color="#0D81FF"/>
</linearGradient>
</defs>
</svg>
