<svg width="97" height="97" viewBox="0 0 97 97" fill="none" xmlns="http://www.w3.org/2000/svg">
<rect x="0.5625" y="0.0917969" width="96" height="96" rx="24" fill="url(#paint0_linear_1858_23892)"/>
<path d="M63.5826 76.693C72.342 76.693 79.4424 69.5926 79.4424 60.8332C79.4424 54.7798 76.0522 49.5183 71.0664 46.8462C72.4865 44.155 73.2371 41.1408 73.2371 38.0116C73.2371 32.9329 71.2596 28.1595 67.6703 24.5687C64.0795 20.978 59.3061 19.002 54.2289 19.002C51.6896 19.002 49.2254 19.4945 46.9486 20.4397C44.6717 21.382 42.5807 22.7726 40.786 24.5687C39.4706 25.8856 38.3706 27.3602 37.5079 28.9514C32.4764 29.5914 27.8283 31.8623 24.183 35.5047C19.8372 39.852 17.4424 45.6326 17.4424 51.7804C17.4424 57.9282 19.8372 63.7073 24.183 68.0546C28.5317 72.4033 34.3109 74.7966 40.4587 74.7966C44.5862 74.7966 48.5486 73.7172 52.0228 71.6925C54.9146 74.7701 59.0244 76.693 63.5826 76.693Z" fill="white"/>
<path d="M61.5025 77.693C70.2619 77.693 77.3623 70.5926 77.3623 61.8332C77.3623 55.7798 73.9721 50.5183 68.9863 47.8462C70.4064 45.155 71.157 42.1408 71.157 39.0116C71.157 33.9329 69.1795 29.1595 65.5902 25.5687C61.9994 21.978 57.226 20.002 52.1488 20.002C49.6095 20.002 47.1453 20.4945 44.8685 21.4397C42.5916 22.382 40.5006 23.7726 38.7059 25.5687C37.3906 26.8856 36.2905 28.3602 35.4278 29.9514C30.3963 30.5914 25.7482 32.8623 22.1029 36.5047C17.7571 40.852 15.3623 46.6326 15.3623 52.7804C15.3623 58.9282 17.7571 64.7073 22.1029 69.0546C26.4516 73.4033 32.2308 75.7966 38.3786 75.7966C42.5061 75.7966 46.4685 74.7172 49.9427 72.6925C52.8345 75.7701 56.9444 77.693 61.5025 77.693Z" stroke="black" stroke-width="2" stroke-miterlimit="10"/>
<path d="M32.7881 56.2715C39.4025 62.8859 50.1269 62.8859 56.7413 56.2715" stroke="black" stroke-width="2" stroke-linejoin="round"/>
<path d="M53.3154 52.8467L59.5801 59.1113" stroke="black" stroke-width="2" stroke-linejoin="round"/>
<path d="M59.363 48.0686C59.363 45.8381 57.1431 44.0293 54.4056 44.0293C51.6681 44.0293 49.4482 45.8381 49.4482 48.0686" stroke="black" stroke-width="2" stroke-linejoin="round"/>
<path d="M39.3864 48.0686C39.3864 45.8381 37.1665 44.0293 34.429 44.0293C31.6916 44.0293 29.4717 45.8381 29.4717 48.0686" stroke="black" stroke-width="2" stroke-linejoin="round"/>
<circle cx="76.7764" cy="20.6658" r="6.91605" fill="white"/>
<rect x="76.0264" y="11.7217" width="2" height="5.0592" fill="black"/>
<rect x="67.874" y="21.5596" width="2" height="5.0592" transform="rotate(-90 67.874 21.5596)" fill="black"/>
<rect x="76.0264" y="24.6514" width="2" height="5.0592" fill="black"/>
<rect x="79.0537" y="24.0947" width="2" height="3.3728" transform="rotate(-45 79.0537 24.0947)" fill="black"/>
<rect width="2" height="3.3728" transform="matrix(-0.707107 -0.707107 -0.707107 0.707107 74.7607 24.0947)" fill="black"/>
<rect x="80.8037" y="21.5596" width="2" height="5.0592" transform="rotate(-90 80.8037 21.5596)" fill="black"/>
<rect x="80.2451" y="18.5293" width="2" height="3.3728" transform="rotate(-135 80.2451 18.5293)" fill="black"/>
<rect width="2" height="3.3728" transform="matrix(0.707107 -0.707107 -0.707107 -0.707107 73.5693 18.5293)" fill="black"/>
<defs>
<linearGradient id="paint0_linear_1858_23892" x1="96.5625" y1="0.0917969" x2="0.562511" y2="96.0918" gradientUnits="userSpaceOnUse">
<stop stop-color="#00FFB8"/>
<stop offset="1" stop-color="#00A7CC"/>
</linearGradient>
</defs>
</svg>
