<svg width="137" height="52" viewBox="0 0 137 52" fill="none" xmlns="http://www.w3.org/2000/svg">
<g clip-path="url(#clip0_1887_16453)">
<path fill-rule="evenodd" clip-rule="evenodd" d="M34.2831 44.4676C38.5178 44.4676 43.1121 45.9167 48.1988 50.4141C48.7084 50.8643 49.3869 50.3047 48.9414 49.7451C43.9437 43.4469 39.3213 42.2479 34.7114 41.2349C29.0713 39.9937 26.1715 36.8266 24.1503 33.35C23.7485 32.6591 23.5672 32.781 23.5312 33.6705C23.4859 34.7569 23.5625 36.1966 23.8064 37.6129C23.5781 37.6223 23.3499 37.6207 23.1186 37.6207C15.0523 37.6207 8.51184 31.0927 8.51184 23.0406C8.51184 14.99 15.0523 8.46359 23.1201 8.46359C31.1863 8.46359 37.7268 14.99 37.7268 23.0406C37.7268 23.6143 37.6987 24.1818 37.633 24.7367C36.5669 24.5444 34.4675 24.5225 32.995 24.6492C32.4416 24.6976 32.5198 24.9555 32.9387 25.0306C37.7675 25.9013 41.0831 28.8886 41.8428 34.3083C41.8584 34.4333 42.0241 34.4693 42.0882 34.3614C44.1414 30.9427 45.2229 27.0285 45.2162 23.0406C45.2162 10.8631 35.3226 0.988281 23.1201 0.988281C10.9161 0.988281 1.02246 10.8616 1.02246 23.0406C1.02246 35.2212 10.9161 45.096 23.1201 45.096C26.356 45.096 29.57 44.4676 34.2831 44.4676ZM35.9276 36.4608C36.9108 37.2893 37.2094 38.2757 36.6904 38.9714C36.4012 39.3528 35.9323 39.5638 35.3695 39.5638C34.8205 39.5639 34.2889 39.3714 33.8672 39.0198C32.9731 38.2398 32.7105 36.9767 33.2935 36.2592C33.5218 35.9778 33.8923 35.823 34.3362 35.823C34.8755 35.823 35.4414 36.0497 35.9276 36.4608ZM40.464 34.3536C40.6078 35.3197 40.303 35.7199 39.9951 35.7199C39.659 35.7199 39.2385 35.3291 38.7429 34.5553C38.2521 33.7924 38.0723 32.917 38.3162 32.4746C38.4756 32.1823 38.8117 32.0541 39.2353 32.2151C40.056 32.5231 40.3765 33.7768 40.464 34.3536ZM71.0937 29.3044L68.5457 26.2452C68.4859 26.1731 68.448 26.0854 68.4363 25.9925C68.4246 25.8995 68.4396 25.8052 68.4797 25.7205C68.5197 25.6358 68.5831 25.5643 68.6623 25.5144C68.7416 25.4644 68.8334 25.4381 68.9271 25.4386H74.2561C74.5094 24.6851 74.6532 23.88 74.6532 23.0422C74.6532 19.2123 71.7956 15.9092 67.8751 15.9092C63.9545 15.9092 61.0969 19.2123 61.0969 23.0422C61.0969 26.872 63.9545 30.1298 67.8751 30.1298C69.0631 30.1298 70.1511 29.8265 71.0953 29.3029L71.0937 29.3044ZM82.6209 34.4709C82.8976 34.7772 82.6709 35.2681 82.2535 35.2681H76.4384C76.3215 35.2682 76.206 35.2427 76.1002 35.1933C75.9943 35.1438 75.9005 35.0717 75.8256 34.982L74.8408 33.7987C72.7667 35.1438 70.3471 35.8584 67.8751 35.8559C60.7952 35.8559 55.0364 30.1079 55.0364 23.0422C55.0364 15.9764 60.7952 10.2285 67.8751 10.2285C74.9549 10.2285 80.7138 15.9764 80.7138 23.0422C80.7138 25.5902 79.9634 27.9632 78.6738 29.961L82.6209 34.4709ZM136.347 10.8209H131.6C131.433 10.8213 131.273 10.8878 131.155 11.0059C131.037 11.124 130.97 11.2839 130.97 11.4509V34.6381C130.97 34.9867 131.251 35.2681 131.6 35.2681H136.347C136.696 35.2681 136.979 34.9867 136.979 34.6381V11.4493C136.979 11.2818 136.912 11.1212 136.794 11.0028C136.675 10.8843 136.515 10.8178 136.347 10.8178V10.8209ZM128.359 10.8209H123.05C122.916 10.8204 122.784 10.8631 122.675 10.9427C122.566 11.0223 122.486 11.1346 122.445 11.2633L118.244 24.9665L113.624 11.2477C113.582 11.1225 113.501 11.0138 113.394 10.937C113.286 10.8601 113.158 10.819 113.026 10.8194H109.321C109.188 10.8189 109.059 10.86 108.952 10.9368C108.844 11.0137 108.763 11.1224 108.72 11.2477L104.103 24.9665L99.9007 11.2633C99.8606 11.1344 99.7802 11.0217 99.6713 10.9417C99.5624 10.8618 99.4308 10.8189 99.2958 10.8194H93.9855C93.8858 10.8195 93.7875 10.8433 93.6986 10.8886C93.6098 10.934 93.5329 10.9997 93.4743 11.0804C93.4158 11.1604 93.3772 11.2532 93.362 11.3511C93.3468 11.4491 93.3553 11.5492 93.3868 11.6432L101.187 34.8429C101.273 35.0993 101.516 35.2712 101.786 35.2712H106C106.272 35.2712 106.513 35.0993 106.599 34.8445L111.173 21.2898L115.745 34.8429C115.831 35.0993 116.074 35.2712 116.344 35.2712H120.56C120.832 35.2712 121.073 35.0993 121.159 34.8429L128.959 11.6432C128.991 11.5493 128.999 11.4493 128.985 11.3514C128.97 11.2535 128.931 11.1606 128.873 11.0804C128.815 10.9996 128.737 10.9338 128.648 10.8884C128.559 10.8431 128.461 10.8194 128.361 10.8194L128.359 10.8209ZM91.3765 11.4509V34.6381C91.3765 34.9867 91.0951 35.2681 90.7449 35.2681H85.999C85.8318 35.2681 85.6714 35.2018 85.553 35.0837C85.4346 34.9656 85.3679 34.8053 85.3675 34.6381V11.4493C85.3675 11.1007 85.6489 10.8178 85.999 10.8178H90.7449C91.0935 10.8178 91.3765 11.1007 91.3765 11.4509Z" fill="black"/>
</g>
<defs>
<clipPath id="clip0_1887_16453">
<rect width="136" height="50.023" fill="white" transform="translate(0.5625 0.988281)"/>
</clipPath>
</defs>
</svg>
