<svg width="221" height="38" viewBox="0 0 221 38" fill="none" xmlns="http://www.w3.org/2000/svg">
<path d="M99.5864 12.5298L103.926 9.28662H89.3936V28.7161H103.926V25.4702H93.5445V20.5112H102.417V17.268H93.5445V12.5298H99.5864Z" fill="black"/>
<path d="M78.413 16.8532H73.3785V12.5298H81.4326L85.7748 9.28662H69.2275V28.7161H77.8769C82.7229 28.7161 85.5216 26.4884 85.5216 22.6095C85.5216 18.8896 83.0057 16.8532 78.413 16.8532ZM77.7207 25.4702H73.3785V20.0963H77.7207C80.3632 20.0963 81.5888 20.988 81.5888 22.8008C81.5888 24.6136 80.2689 25.4702 77.7207 25.4702Z" fill="black"/>
<path d="M115.691 9.28662H107.796V28.7161H111.947V23.2129H115.723C120.755 23.2129 123.901 20.5435 123.901 16.2498C123.901 11.9561 120.755 9.28662 115.691 9.28662ZM115.597 19.9697H111.917V12.5298H115.597C118.272 12.5298 119.718 13.8659 119.718 16.2498C119.718 18.6337 118.272 19.9697 115.597 19.9697Z" fill="black"/>
<path d="M62.1167 24.5165C61.0177 25.1225 59.7894 25.4404 58.5314 25.4404C54.7872 25.4404 52.0828 22.7359 52.0828 19.016C52.0828 15.296 54.7872 12.5916 58.5314 12.5916C59.8837 12.5619 61.2063 13.0064 62.3053 13.801L65.2953 11.576L65.1067 11.3848C63.3774 9.82515 61.0473 9.03052 58.4048 9.03052C55.5442 9.03052 52.9313 10.0164 51.0457 11.7969C49.1574 13.6421 48.0881 16.2172 48.15 18.8894C48.1177 21.5911 49.1574 24.1986 51.0457 26.1057C53.0256 27.9832 55.6681 29.0338 58.3752 28.9691C61.3625 28.9691 63.9727 27.9186 65.7343 26.0115L63.0622 24.0074L62.1167 24.5165Z" fill="black"/>
<path d="M173.826 9.31895V28.7457H177.977V20.7967H186.817V28.7457H190.971V9.31895H186.817V17.3003H177.977V9.31895H173.826ZM166.685 28.7457H171.057L162.941 9.31895H158.725L150.453 28.7457H154.636L156.304 24.8345H165.112L166.685 28.7457ZM157.561 21.5913L160.77 13.8012L163.789 21.5913H157.561ZM200.283 20.8937H202.861L209.215 28.7161H214.562L206.069 18.666L213.493 9.28662H208.744L202.578 17.6182H200.283V9.28662H196.13V28.7161H200.283V20.8937ZM136.737 16.8855V12.5621H147.589V9.31895H132.583V28.7457H141.235C146.078 28.7457 148.88 26.5208 148.88 22.6419C148.88 18.9219 146.364 16.8855 141.768 16.8855H136.737ZM136.737 25.5026V20.1287H141.079C143.719 20.1287 144.947 21.0203 144.947 22.8331C144.947 24.646 143.657 25.5349 141.079 25.5349H136.737V25.5026Z" fill="black"/>
<path d="M35.1588 9.16016C35.913 10.146 36.5433 11.2262 37.0767 12.371L22.5443 23.2131L16.4404 19.3342V14.693L22.512 18.5395L35.1588 9.16016Z" fill="black"/>
<path d="M10.2421 19.0162C10.2421 18.7926 10.2421 18.604 10.2744 18.3805L6.59482 18.1892C6.59482 18.4451 6.5625 18.7306 6.5625 18.9838C6.5625 23.4365 8.35649 27.4743 11.2495 30.3996L13.8597 27.7598C11.6266 25.5349 10.2421 22.4506 10.2421 19.0162Z" fill="black"/>
<path d="M22.5113 6.6145C22.7322 6.6145 22.9207 6.6145 23.1416 6.64682L23.3302 2.92685C23.077 2.92685 22.7941 2.89453 22.5436 2.89453C18.1394 2.89453 14.1447 4.70738 11.249 7.63271L13.8592 10.2725C16.0626 8.01521 19.1442 6.6145 22.5113 6.6145Z" fill="black"/>
<path d="M22.5113 31.4178C22.2904 31.4178 22.1018 31.4178 21.8809 31.3855L21.6924 35.1054C21.9456 35.1054 22.2284 35.1377 22.4789 35.1377C26.8831 35.1377 30.8805 33.3249 33.7735 30.3996L31.1633 27.7598C28.9599 30.0494 25.908 31.4178 22.5113 31.4178Z" fill="black"/>
<path d="M29.4318 8.77738L32.5457 6.45543C29.8089 4.23045 26.3179 2.86206 22.5117 2.86206V6.58203C25.0923 6.61435 27.4815 7.40899 29.4318 8.77738Z" fill="black"/>
<path d="M38.4938 19.0161C38.4938 18.0302 38.3995 17.0766 38.2406 16.123L34.8116 18.6982C34.8116 18.7925 34.8116 18.9218 34.8116 19.0161C34.8116 22.6741 33.2385 25.9496 30.7549 28.2069L33.2385 30.9733C36.4493 28.048 38.4938 23.7542 38.4938 19.0161Z" fill="black"/>
<path d="M22.5125 31.4177C18.8949 31.4177 15.6544 29.8284 13.4213 27.3152L10.6846 29.8284C13.6099 33.1039 17.8255 35.1376 22.5125 35.1376V31.4177Z" fill="black"/>
<path d="M14.3014 9.82524L11.8152 7.05884C8.57468 10.0165 6.5625 14.2779 6.5625 19.0161H10.2421C10.2421 15.3904 11.8152 12.0852 14.3014 9.82524Z" fill="black"/>
</svg>
