<svg xmlns="http://www.w3.org/2000/svg" width="25" height="15" viewBox="0 0 25 15" fill="none">
<path d="M24.0986 12.8673C24.0341 12.7593 23.635 11.8923 21.7149 10.1101C19.7048 8.244 19.9748 8.54703 22.396 5.32029C23.8706 3.35515 24.4601 2.15506 24.2756 1.64202C24.1001 1.15298 23.0155 1.28199 23.0155 1.28199L19.4092 1.303C19.4092 1.303 19.1422 1.26699 18.9427 1.3855C18.7492 1.50251 18.6247 1.77253 18.6247 1.77253C18.6247 1.77253 18.0531 3.29364 17.2911 4.58674C15.6845 7.31544 15.0409 7.45945 14.7784 7.28993C14.1679 6.89541 14.3209 5.70282 14.3209 4.85676C14.3209 2.21206 14.7214 1.10948 13.5393 0.82446C13.1463 0.729953 12.8583 0.666948 11.8547 0.656448C10.5676 0.642947 9.47701 0.660948 8.86046 0.96247C8.44943 1.16348 8.13291 1.61202 8.32642 1.63752C8.56494 1.66902 9.10498 1.78303 9.3915 2.17306C9.76203 2.6756 9.74853 3.80668 9.74853 3.80668C9.74853 3.80668 9.96154 6.91941 9.25199 7.30644C8.76446 7.57196 8.09691 7.03042 6.6643 4.55373C5.93075 3.28614 5.37571 1.88354 5.37571 1.88354C5.37571 1.88354 5.2692 1.62252 5.07868 1.48301C4.84767 1.3135 4.52364 1.25949 4.52364 1.25949L1.09439 1.28049C1.09439 1.28049 0.579855 1.29549 0.390841 1.51901C0.222828 1.71853 0.37734 2.12956 0.37734 2.12956C0.37734 2.12956 3.06254 8.41052 6.10176 11.5772C8.89046 14.48 12.0557 14.2894 12.0557 14.2894H13.4898C13.4898 14.2894 13.9233 14.2414 14.1439 14.0029C14.3479 13.7839 14.3404 13.3729 14.3404 13.3729C14.3404 13.3729 14.3119 11.4482 15.2059 11.1647C16.0865 10.8857 17.2176 13.0249 18.4162 13.8484C19.3222 14.471 20.0108 14.3345 20.0108 14.3345L23.2165 14.2894C23.2165 14.2894 24.8936 14.1859 24.0986 12.8673Z" fill="black"/>
</svg>