<svg width="106" height="26" viewBox="0 0 106 26" fill="none" xmlns="http://www.w3.org/2000/svg">
<g clip-path="url(#clip0_1887_16403)">
<path d="M45.113 10.556C44.917 9.021 44.241 7.846 43.085 7.032C41.945 6.202 40.552 5.787 38.907 5.787C37.001 5.787 35.43 6.452 34.192 7.784C32.954 9.115 32.335 10.854 32.335 13C32.335 15.146 32.954 16.885 34.192 18.216C35.43 19.548 37.002 20.213 38.907 20.213C40.552 20.213 41.961 19.759 43.134 18.851C44.323 17.926 45.031 16.618 45.259 14.927H51.465C51.318 18.075 50.065 20.628 47.702 22.587C45.357 24.529 42.425 25.5 38.907 25.5C35.275 25.5 32.27 24.333 29.892 22C27.53 19.65 26.349 16.65 26.349 13C26.349 9.35 27.53 6.358 29.892 4.024C32.27 1.674 35.275 0.5 38.907 0.5C42.295 0.5 45.145 1.432 47.458 3.296C49.788 5.144 51.106 7.565 51.416 10.556H45.113ZM71.472 25.03V15.608H60.967V25.03H54.957V0.97H60.967V10.298H71.472V0.97H77.482V25.03H71.472ZM102.384 22C99.974 24.333 96.928 25.5 93.247 25.5C89.566 25.5 86.52 24.333 84.109 22C81.699 19.65 80.493 16.65 80.493 13C80.493 9.35 81.699 6.358 84.109 4.024C86.52 1.674 89.566 0.5 93.247 0.5C96.927 0.5 99.974 1.675 102.384 4.024C104.795 6.358 106 9.35 106 13C106 16.65 104.795 19.65 102.384 22ZM88.384 18.216C89.672 19.548 91.292 20.213 93.247 20.213C95.201 20.213 96.814 19.548 98.084 18.216C99.354 16.885 99.99 15.146 99.99 13C99.99 10.854 99.355 9.115 98.084 7.784C96.814 6.452 95.201 5.787 93.247 5.787C91.292 5.787 89.672 6.46 88.385 7.807C87.115 9.139 86.479 10.87 86.479 13C86.479 15.13 87.113 16.869 88.384 18.216ZM23.35 0.97V25.03H17.234V16.82H14.07L7.135 25.03H0L7.284 16.485C5.522 15.975 4.091 15.037 2.994 13.668C1.929 12.3 1.397 10.708 1.397 8.895C1.397 7.431 1.763 6.094 2.495 4.885C3.2585 3.6766 4.32478 2.68891 5.588 2.02C6.885 1.32 8.316 0.97 9.878 0.97H23.35ZM17.234 11.902V5.982H10.677C9.613 5.982 8.765 6.253 8.133 6.794C7.533 7.304 7.235 8.019 7.235 8.942C7.235 9.833 7.534 10.549 8.133 11.091C8.765 11.631 9.613 11.902 10.677 11.902H17.235H17.234Z" fill="black"/>
</g>
<defs>
<clipPath id="clip0_1887_16403">
<rect width="106" height="26" fill="white"/>
</clipPath>
</defs>
</svg>
