<svg xmlns="http://www.w3.org/2000/svg" width="25" height="17" viewBox="0 0 25 17" fill="none">
<path d="M23.2925 1.84C22.6415 0.682 21.935 0.469 20.4965 0.388C19.0595 0.2905 15.446 0.25 12.3155 0.25C9.179 0.25 5.564 0.2905 4.1285 0.3865C2.693 0.469 1.985 0.6805 1.328 1.84C0.6575 2.9965 0.3125 4.9885 0.3125 8.4955C0.3125 8.4985 0.3125 8.5 0.3125 8.5C0.3125 8.503 0.3125 8.5045 0.3125 8.5045V8.5075C0.3125 11.9995 0.6575 14.0065 1.328 15.151C1.985 16.309 2.6915 16.519 4.127 16.6165C5.564 16.7005 9.179 16.75 12.3155 16.75C15.446 16.75 19.0595 16.7005 20.498 16.618C21.9365 16.5205 22.643 16.3105 23.294 15.1525C23.9705 14.008 24.3125 12.001 24.3125 8.509C24.3125 8.509 24.3125 8.5045 24.3125 8.5015C24.3125 8.5015 24.3125 8.4985 24.3125 8.497C24.3125 4.9885 23.9705 2.9965 23.2925 1.84ZM9.3125 13V4L16.8125 8.5L9.3125 13Z" fill="black"/>
</svg>